HIERARCHY
ROOT Hips
{
	OFFSET 0.000000 0.000000 0.000000
	CHANNELS 6 Xposition Yposition Zposition Zrotation Yrotation Xrotation 
	JOINT LHipJoint
	{
		OFFSET 0.000000 0.000000 0.000000
		CHANNELS 3 Zrotation Yrotation Xrotation
		JOINT LeftUpLeg
		{
			OFFSET 1.363060 -1.794630 0.839290
			CHANNELS 3 Zrotation Yrotation Xrotation
			JOINT LeftLeg
			{
				OFFSET 2.448110 -6.726130 0.000000
				CHANNELS 3 Zrotation Yrotation Xrotation
				JOINT LeftFoot
				{
					OFFSET 2.562200 -7.039590 0.000000
					CHANNELS 3 Zrotation Yrotation Xrotation
					JOINT LeftToeBase
					{
						OFFSET 0.157640 -0.433110 2.322550
						CHANNELS 3 Zrotation Yrotation Xrotation
						End Site
						{
							OFFSET 0.000000 0.000000 0.000000
						}
					}
				}
			}
		}
	}
	JOINT RHipJoint
	{
		OFFSET 0.000000 0.000000 0.000000
		CHANNELS 3 Zrotation Yrotation Xrotation
		JOINT RightUpLeg
		{
			OFFSET -1.305520 -1.794630 0.839290
			CHANNELS 3 Zrotation Yrotation Xrotation
			JOINT RightLeg
			{
				OFFSET -2.542530 -6.985550 0.000000
				CHANNELS 3 Zrotation Yrotation Xrotation
				JOINT RightFoot
				{
					OFFSET -2.568260 -7.056230 0.000000
					CHANNELS 3 Zrotation Yrotation Xrotation
					JOINT RightToeBase
					{
						OFFSET -0.164730 -0.452590 2.363150
						CHANNELS 3 Zrotation Yrotation Xrotation
						End Site
						{
							OFFSET 0.000000 0.000000 0.000000
						}
					}
				}
			}
		}
	}
	JOINT LowerBack
	{
		OFFSET 0.000000 0.000000 0.000000
		CHANNELS 3 Zrotation Yrotation Xrotation
		JOINT Spine
		{
			OFFSET 0.028270 2.035590 -0.193380
			CHANNELS 3 Zrotation Yrotation Xrotation
			JOINT Spine1
			{
				OFFSET 0.056720 2.048850 -0.042750
				CHANNELS 3 Zrotation Yrotation Xrotation
				JOINT Neck
				{
					OFFSET 0.000000 0.000000 0.000000
					CHANNELS 3 Zrotation Yrotation Xrotation
					JOINT Neck1
					{
						OFFSET -0.054170 1.746240 0.172020
						CHANNELS 3 Zrotation Yrotation Xrotation
						JOINT Head
						{
							OFFSET 0.104070 1.761360 -0.123970
							CHANNELS 3 Zrotation Yrotation Xrotation
							End Site
							{
								OFFSET 0.000000 0.000000 0.000000
							}
						}
					}
				}
				JOINT LeftShoulder
				{
					OFFSET 0.000000 0.000000 0.000000
					CHANNELS 3 Zrotation Yrotation Xrotation
					JOINT LeftArm
					{
						OFFSET 3.362410 1.200890 -0.311210
						CHANNELS 3 Zrotation Yrotation Xrotation
						JOINT LeftForeArm
						{
							OFFSET 4.983000 -0.000000 -0.000000
							CHANNELS 3 Zrotation Yrotation Xrotation
							JOINT LeftHand
							{
								OFFSET 3.483560 -0.000000 -0.000000
								CHANNELS 3 Zrotation Yrotation Xrotation
								JOINT LeftFingerBase
								{
									OFFSET 0.000000 0.000000 0.000000
									CHANNELS 3 Zrotation Yrotation Xrotation
									JOINT LeftHandIndex1
									{
										OFFSET 0.715260 -0.000000 -0.000000
										CHANNELS 3 Zrotation Yrotation Xrotation
										End Site
										{
											OFFSET 0.000000 0.000000 0.000000
										}
									}
								}
								JOINT LThumb
								{
									OFFSET 0.000000 0.000000 0.000000
									CHANNELS 3 Zrotation Yrotation Xrotation
									End Site
									{
										OFFSET 0.000000 0.000000 0.000000
									}
								}
							}
						}
					}
				}
				JOINT RightShoulder
				{
					OFFSET 0.000000 0.000000 0.000000
					CHANNELS 3 Zrotation Yrotation Xrotation
					JOINT RightArm
					{
						OFFSET -3.136600 1.374050 -0.404650
						CHANNELS 3 Zrotation Yrotation Xrotation
						JOINT RightForeArm
						{
							OFFSET -5.241900 -0.000000 -0.000000
							CHANNELS 3 Zrotation Yrotation Xrotation
							JOINT RightHand
							{
								OFFSET -3.444170 -0.000000 -0.000000
								CHANNELS 3 Zrotation Yrotation Xrotation
								JOINT RightFingerBase
								{
									OFFSET 0.000000 0.000000 0.000000
									CHANNELS 3 Zrotation Yrotation Xrotation
									JOINT RightHandIndex1
									{
										OFFSET -0.622530 -0.000000 -0.000000
										CHANNELS 3 Zrotation Yrotation Xrotation
										End Site
										{
											OFFSET 0.000000 0.000000 0.000000
										}
									}
								}
								JOINT RThumb
								{
									OFFSET 0.000000 0.000000 0.000000
									CHANNELS 3 Zrotation Yrotation Xrotation
									End Site
									{
										OFFSET 0.000000 0.000000 0.000000
									}
								}
							}
						}
					}
				}
			}
		}
	}
}
MOTION
Frames: 6
Frame Time: 0.008333
-1.777170 16.703384 1.742229 171.865040 -82.136658 -148.183515 -8.834379 0.866426 5.988513 -13.073221 -6.475448 -53.619284 -2.891322 0.554820 27.106588 0.560432 0.635890 -7.626886 0.159100 0.000000 -29.495900 10.775650 -5.777692 2.402231 4.087235 -4.434645 -0.130111 0.665815 -1.444862 17.212844 -0.157218 13.808266 33.848696 9.041000 0.000000 -70.962900 -8.076978 1.411777 -10.173671 -2.240133 1.703539 -4.472551 -4.154478 1.566042 2.260494 10.540958 -7.431372 -8.310345 -0.675763 -0.040596 -0.187512 0.000000 0.000000 0.000000 -0.632465 23.307963 2.893684 -35.138690 8.093499 -50.690136 -0.457082 -70.142834 -0.152924 30.235868 6.734345 1.779345 -0.357257 0.225965 -0.000000 0.000000 0.000000 0.000000 0.000000 0.000000 0.000000 1.686158 -1.478757 -1.935379 37.012768 41.828573 8.468327 -179.154629 74.062310 179.871981 -12.515823 9.192490 -1.111521 0.202615 -0.765189 -0.000000 0.000000 0.000000 0.000000 0.000000 0.000000 0.000000 
-2.012266 16.620624 1.733033 170.513404 -82.300669 -147.251087 -8.870209 0.849776 5.813024 -13.426082 -6.481538 -54.126365 -2.631780 0.929654 30.852101 0.559376 0.560103 -7.938395 0.121100 0.000000 -27.146700 10.933808 -5.832723 2.256414 3.458297 -5.639037 -0.228268 0.574986 -1.527548 19.112266 -0.245658 14.418107 34.305447 9.560700 0.000000 -69.572500 -8.470186 1.246822 -9.943734 -2.298269 1.582042 -4.422089 -4.088110 1.445378 2.258133 10.845169 -7.472676 -8.315567 -0.616451 -0.035348 -0.195544 0.000000 0.000000 0.000000 -0.722436 23.320357 2.922751 -35.555602 8.835482 -50.895882 -0.447445 -70.233827 -0.152249 30.859603 6.772470 1.829333 -0.354369 0.220675 -0.000000 0.000000 0.000000 0.000000 0.000000 0.000000 0.000000 1.721722 -1.593671 -1.876851 36.520864 42.420864 8.655201 -179.161185 73.569522 179.876026 -11.973989 9.086621 -1.052201 0.193629 -0.769768 -0.000000 0.000000 0.000000 0.000000 0.000000 0.000000 0.000000 
-2.243991 16.543513 1.724210 168.889465 -82.434473 -146.056459 -8.880057 0.823012 5.645574 -13.811676 -6.522422 -54.363472 -2.388894 1.226620 34.296058 0.595426 0.619690 -8.546703 0.072300 -0.000000 -24.762200 11.118994 -5.863165 2.091228 2.737558 -6.886497 -0.486511 0.469589 -1.613947 21.253877 -0.359078 14.626227 34.739532 9.829500 0.000000 -68.093400 -8.855771 1.086337 -9.690633 -2.357512 1.466016 -4.365188 -4.031868 1.332517 2.257002 11.099974 -7.512140 -8.312282 -0.566707 -0.030967 -0.201317 0.000000 0.000000 0.000000 -0.862779 23.324773 2.942641 -36.055611 9.404178 -50.958836 -0.442612 -70.159001 -0.150166 31.422755 6.776648 1.866613 -0.348427 0.214318 -0.000000 0.000000 0.000000 0.000000 0.000000 0.000000 0.000000 1.753036 -1.711449 -1.820588 36.265319 42.957345 8.993602 -179.178837 73.140459 179.880813 -11.394581 8.961488 -0.988378 0.183897 -0.772802 -0.000000 0.000000 0.000000 0.000000 0.000000 0.000000 0.000000 
-2.472371 16.473877 1.716109 167.115540 -82.514115 -144.711013 -8.861593 0.797281 5.491067 -14.235663 -6.587295 -54.328728 -2.180132 1.447348 37.347837 0.668819 0.818865 -9.456444 0.007900 -0.000000 -22.597100 11.327435 -5.863563 1.915751 1.941066 -8.117832 -0.909240 0.350607 -1.702856 23.615786 -0.498460 14.310150 35.133497 9.757300 0.000000 -66.602300 -9.225707 0.938901 -9.429561 -2.416300 1.362565 -4.304101 -3.986471 1.234193 2.262606 11.306393 -7.551750 -8.300487 -0.527374 -0.027554 -0.204463 0.000000 0.000000 0.000000 -1.050210 23.329226 2.951722 -36.661232 9.778062 -50.884130 -0.442691 -69.906171 -0.146723 31.899659 6.788351 1.901185 -0.339155 0.206717 -0.000000 0.000000 0.000000 0.000000 0.000000 0.000000 0.000000 1.786153 -1.831597 -1.766762 36.257680 43.439591 9.508851 -179.207308 72.779242 179.886149 -10.800124 8.831023 -0.924048 0.174056 -0.774488 -0.000000 0.000000 0.000000 0.000000 0.000000 0.000000 0.000000 
-2.697541 16.413230 1.709029 165.322387 -82.517891 -143.339086 -8.814857 0.781750 5.350589 -14.701960 -6.664110 -54.029792 -2.015191 1.599410 39.957965 0.779092 1.155563 -10.648993 -0.081500 0.000000 -20.806600 11.553333 -5.828603 1.738820 1.086913 -9.275931 -1.488683 0.220420 -1.793518 26.165710 -0.663660 13.382248 35.448438 9.272800 -0.000001 -65.143500 -9.577290 0.811630 -9.172004 -2.473761 1.277994 -4.239966 -3.951482 1.156255 2.281784 11.469089 -7.592715 -8.282150 -0.498940 -0.025130 -0.205332 0.000000 0.000000 0.000000 -1.269975 23.350840 2.949203 -37.401567 9.924335 -50.676400 -0.448123 -69.457966 -0.142067 32.263938 6.841806 1.941344 -0.326483 0.197963 -0.000000 0.000000 0.000000 0.000000 0.000000 0.000000 0.000000 1.830024 -1.953290 -1.715977 36.495919 43.868573 10.215583 -179.245669 72.492303 179.891847 -10.208317 8.712155 -0.862308 0.164571 -0.775113 -0.000000 0.000000 0.000000 0.000000 0.000000 0.000000 0.000000 
-2.919580 16.362740 1.703872 163.783523 -82.424667 -142.209050 -8.753737 0.780566 5.223229 -15.186108 -6.724119 -53.497842 -1.895442 1.695036 42.115841 0.923645 1.613446 -12.083788 -0.207200 -0.000000 -19.457300 11.773928 -5.754998 1.572414 0.228640 -10.280274 -2.203512 0.082080 -1.884968 28.853558 -0.853246 11.782772 35.632240 8.323499 -0.000000 -63.754800 -9.888915 0.714492 -8.931319 -2.525039 1.219552 -4.175575 -3.927189 1.105141 2.317024 11.589339 -7.633432 -8.257216 -0.482219 -0.023791 -0.203520 0.000000 0.000000 0.000000 -1.529284 23.388147 2.935924 -38.284716 9.859980 -50.341515 -0.459867 -68.817340 -0.136324 32.490191 6.982270 1.998990 -0.310570 0.187954 -0.000000 0.000000 0.000000 0.000000 0.000000 0.000000 0.000000 1.889914 -2.068460 -1.666841 36.960210 44.244782 11.118987 -179.293642 72.284684 179.897760 -9.631187 8.621763 -0.805555 0.155790 -0.775006 -0.000000 0.000000 0.000000 0.000000 0.000000 0.000000 0.000000 
